<?xml version="1.0" encoding="UTF-8"?>
<svg id="Layer_1" data-name="Layer 1" xmlns="http://www.w3.org/2000/svg" viewBox="0 0 120 120">
  <defs>
    <style>
      .cls-1 {
        fill: #ff5f05;
      }

      .cls-2 {
        fill: #13294b;
      }
    </style>
  </defs>
  <path class="cls-2" d="m101.54,32.31V0H18.46v32.31h18.46v55.38h-18.46v32.31h83.08v-32.31h-18.46v-55.38h18.46Zm-18.46,60h13.85v23.08H23.08v-23.08h13.85c2.55,0,4.61-2.07,4.61-4.62v-55.38c0-2.55-2.07-4.62-4.61-4.62h-13.85V4.62h73.85v23.08h-13.85c-2.55,0-4.62,2.07-4.62,4.62v55.38c0,2.55,2.07,4.62,4.62,4.62Z"/>
  <path class="cls-1" d="m83.08,27.69h13.85V4.62H23.08v23.08h13.85c2.55,0,4.61,2.07,4.61,4.62v55.38c0,2.55-2.07,4.62-4.61,4.62h-13.85v23.08h73.85v-23.08h-13.85c-2.55,0-4.62-2.07-4.62-4.62v-55.38c0-2.55,2.07-4.62,4.62-4.62Z"/>
</svg>