<?xml version="1.0" encoding="UTF-8"?>
<svg id="Layer_1" data-name="Layer 1" xmlns="http://www.w3.org/2000/svg" viewBox="0 0 180 180">
  <defs>
    <style>
      .cls-1 {
        fill: #ff5f05;
      }

      .cls-2 {
        fill: #13294b;
      }
    </style>
  </defs>
  <path class="cls-2" d="m152.04,48.55V.09H27.43v48.46h27.69v83.08h-27.69v48.46h124.61v-48.46h-27.69V48.55h27.69Zm-27.69,90h20.77v34.61H34.35v-34.61h20.77c3.82,0,6.92-3.1,6.92-6.92V48.55c0-3.82-3.1-6.92-6.92-6.92h-20.77V7.01h110.77v34.61h-20.77c-3.82,0-6.92,3.1-6.92,6.92v83.08c0,3.82,3.1,6.92,6.92,6.92Z"/>
  <path class="cls-1" d="m124.35,41.63h20.77V7.01H34.35v34.61h20.77c3.82,0,6.92,3.1,6.92,6.92v83.08c0,3.82-3.1,6.92-6.92,6.92h-20.77v34.61h110.77v-34.61h-20.77c-3.82,0-6.92-3.1-6.92-6.92V48.55c0-3.82,3.1-6.92,6.92-6.92Z"/>
</svg>