<?xml version="1.0" encoding="UTF-8"?>
<svg id="Layer_1" data-name="Layer 1" xmlns="http://www.w3.org/2000/svg" viewBox="0 0 152 152">
  <defs>
    <style>
      .cls-1 {
        fill: #ff5f05;
      }

      .cls-2 {
        fill: #13294b;
      }
    </style>
  </defs>
  <path class="cls-2" d="m128.61,40.92V0H23.39v40.92h23.39v70.15h-23.39v40.92h105.23v-40.92h-23.38V40.92h23.38Zm-23.38,76h17.54v29.23H29.23v-29.23h17.54c3.23,0,5.84-2.62,5.84-5.85V40.92c0-3.23-2.62-5.85-5.84-5.85h-17.54V5.85h93.54v29.23h-17.54c-3.23,0-5.85,2.62-5.85,5.85v70.15c0,3.23,2.62,5.85,5.85,5.85Z"/>
  <path class="cls-1" d="m105.23,35.08h17.54V5.85H29.23v29.23h17.54c3.23,0,5.84,2.62,5.84,5.85v70.15c0,3.23-2.62,5.85-5.84,5.85h-17.54v29.23h93.54v-29.23h-17.54c-3.23,0-5.85-2.62-5.85-5.85V40.92c0-3.23,2.62-5.85,5.85-5.85Z"/>
</svg>