<?xml version="1.0" encoding="UTF-8"?>
<svg id="Layer_1" data-name="Layer 1" xmlns="http://www.w3.org/2000/svg" viewBox="0 0 1024 1024">
  <defs>
    <style>
      .cls-1 {
        fill: #ff5f05;
      }

      .cls-2 {
        fill: #13294b;
      }
    </style>
  </defs>
  <path class="cls-2" d="m865.46,275.69V0H156.54v275.69h157.54v472.61h-157.54v275.69h708.92v-275.69h-157.53v-472.61h157.53Zm-157.53,512h118.15v196.92H195.91v-196.92h118.17c21.73,0,39.38-17.64,39.38-39.39v-472.61c0-21.76-17.64-39.39-39.38-39.39h-118.17V39.39h630.17v196.92h-118.15c-21.76,0-39.39,17.63-39.39,39.39v472.61c0,21.75,17.63,39.39,39.39,39.39Z"/>
  <path class="cls-1" d="m707.93,236.3h118.15V39.39H195.91v196.92h118.17c21.73,0,39.38,17.63,39.38,39.39v472.61c0,21.75-17.64,39.39-39.38,39.39h-118.17v196.92h630.17v-196.92h-118.15c-21.76,0-39.39-17.64-39.39-39.39v-472.61c0-21.76,17.63-39.39,39.39-39.39Z"/>
</svg>