<?xml version="1.0" encoding="UTF-8"?>
<svg id="Layer_1" data-name="Layer 1" xmlns="http://www.w3.org/2000/svg" viewBox="0 0 40 40">
  <defs>
    <style>
      .cls-1 {
        fill: #ff5f05;
      }

      .cls-2 {
        fill: #13294b;
      }
    </style>
  </defs>
  <path class="cls-2" d="m33.85,10.77V0H6.15v10.77h6.15v18.46h-6.15v10.77h27.69v-10.77h-6.15V10.77h6.15Zm-6.15,20h4.62v7.69H7.69v-7.69h4.62c.85,0,1.54-.69,1.54-1.54V10.77c0-.85-.69-1.54-1.54-1.54h-4.62V1.54h24.62v7.69h-4.62c-.85,0-1.54.69-1.54,1.54v18.46c0,.85.69,1.54,1.54,1.54Z"/>
  <path class="cls-1" d="m27.69,9.23h4.62V1.54H7.69v7.69h4.62c.85,0,1.54.69,1.54,1.54v18.46c0,.85-.69,1.54-1.54,1.54h-4.62v7.69h24.62v-7.69h-4.62c-.85,0-1.54-.69-1.54-1.54V10.77c0-.85.69-1.54,1.54-1.54Z"/>
</svg>